<svg xmlns="http://www.w3.org/2000/svg" x="0px" y="0px"
width="64" height="64"
viewBox="0 0 172 172"
style=" fill:#000000;"><defs><linearGradient x1="48.375" y1="49.49569" x2="48.375" y2="66.74406" gradientUnits="userSpaceOnUse" id="color-1_43629_gr1"><stop offset="0" stop-color="#ffffff"></stop><stop offset="1" stop-color="#ffe1ea"></stop></linearGradient><linearGradient x1="86" y1="27.32381" x2="86" y2="144.76219" gradientUnits="userSpaceOnUse" id="color-2_43629_gr2"><stop offset="0" stop-color="#ffe29f"></stop><stop offset="1" stop-color="#ff719a"></stop></linearGradient><linearGradient x1="86" y1="27.32381" x2="86" y2="144.76219" gradientUnits="userSpaceOnUse" id="color-3_43629_gr3"><stop offset="0" stop-color="#ffe29f"></stop><stop offset="1" stop-color="#ff719a"></stop></linearGradient><linearGradient x1="86" y1="27.32381" x2="86" y2="144.76219" gradientUnits="userSpaceOnUse" id="color-4_43629_gr4"><stop offset="0" stop-color="#ffe29f"></stop><stop offset="1" stop-color="#ff719a"></stop></linearGradient><linearGradient x1="86" y1="27.32381" x2="86" y2="144.76219" gradientUnits="userSpaceOnUse" id="color-5_43629_gr5"><stop offset="0" stop-color="#ffe29f"></stop><stop offset="1" stop-color="#ff719a"></stop></linearGradient><linearGradient x1="86" y1="27.32381" x2="86" y2="144.76219" gradientUnits="userSpaceOnUse" id="color-6_43629_gr6"><stop offset="0" stop-color="#ffe29f"></stop><stop offset="1" stop-color="#ff719a"></stop></linearGradient></defs><g fill="none" fill-rule="nonzero" stroke="none" stroke-width="1" stroke-linecap="butt" stroke-linejoin="miter" stroke-miterlimit="10" stroke-dasharray="" stroke-dashoffset="0" font-family="none" font-weight="none" font-size="none" text-anchor="none" style="mix-blend-mode: normal"><path d="M0,172v-172h172v172z" fill="none"></path><g><path d="M40.3125,67.1875v-13.4375c0,-1.4835 1.204,-2.6875 2.6875,-2.6875h13.4375z" fill="url(#color-1_43629_gr1)"></path><path d="M158.5625,120.9375h-5.375v-77.9375c0,-7.40944 -6.02806,-13.4375 -13.4375,-13.4375h-107.5c-7.40944,0 -13.4375,6.02806 -13.4375,13.4375v77.9375h-5.375c-2.96431,0 -5.375,2.41069 -5.375,5.375v2.6875c0,7.40944 6.02806,13.4375 13.4375,13.4375h129c7.40944,0 13.4375,-6.02806 13.4375,-13.4375v-2.6875c0,-2.96431 -2.41069,-5.375 -5.375,-5.375zM24.1875,43c0,-4.44512 3.61737,-8.0625 8.0625,-8.0625h107.5c4.44512,0 8.0625,3.61738 8.0625,8.0625v77.9375h-41.33912c-2.05594,0 -3.89688,1.14219 -4.80525,2.96969l-1.204,2.40531l-28.93094,-0.00538l-1.19594,-2.39188c-0.91375,-1.83556 -2.75737,-2.97775 -4.81062,-2.97775h-41.33913zM158.5625,129c0,4.44512 -3.61738,8.0625 -8.0625,8.0625h-129c-4.44513,0 -8.0625,-3.61738 -8.0625,-8.0625v-2.6875l52.09181,0.00538l1.19594,2.39188c0.91375,1.83825 2.75469,2.97775 4.81062,2.97775h28.92825c2.05594,0 3.89688,-1.14219 4.80525,-2.96969l1.204,-2.40531h52.08913z" fill="url(#color-2_43629_gr2)"></path><path d="M142.4375,48.375c0,-4.44512 -3.61738,-8.0625 -8.0625,-8.0625h-96.75c-4.44512,0 -8.0625,3.61738 -8.0625,8.0625v67.1875h112.875zM137.0625,110.1875h-102.125v-61.8125c0,-1.4835 1.204,-2.6875 2.6875,-2.6875h96.75c1.4835,0 2.6875,1.204 2.6875,2.6875z" fill="url(#color-3_43629_gr3)"></path><path d="M102.125,59.125h-32.25c-2.96431,0 -5.375,2.41069 -5.375,5.375v26.875c0,2.96431 2.41069,5.375 5.375,5.375h32.25c2.96431,0 5.375,-2.41069 5.375,-5.375v-26.875c0,-2.96431 -2.41069,-5.375 -5.375,-5.375zM102.125,91.375h-32.25v-26.875h32.25z" fill="url(#color-4_43629_gr4)"></path><path d="M75.25,69.875h21.5v5.375h-21.5z" fill="url(#color-5_43629_gr5)"></path><path d="M75.25,80.625h21.5v5.375h-21.5z" fill="url(#color-6_43629_gr6)"></path></g></g>
</svg>